<svg width="220" height="42" id="Layer_1" data-name="Layer 1" xmlns="http://www.w3.org/2000/svg" viewBox="0 0 1057.3 169.06"><defs><style>.cls-1{fill:#009d4f;}.cls-2{fill:#fff;}.cls-3{fill:#00698e;}.cls-4{fill:#006f42;}.cls-5{fill:#00857b;}.cls-6{fill:#9eafac;}</style></defs><title>SandyNET-Primary-Color</title><polyline class="cls-1" points="714.07 94.74 714.07 164.92 669.75 164.92 669.75 11.43 671.92 11.43 680.29 13.07 761.44 78.66 761.44 8.48 805.98 8.48 805.98 167.09 804.02 167.09 714.07 94.74"/><polyline class="cls-1" points="818.3 8.48 923.03 8.48 923.03 46.72 863.71 46.72 863.71 67.58 914.55 67.58 914.55 103.43 863.71 103.43 863.71 126.68 926.29 126.68 926.29 164.92 818.3 164.92 818.3 8.48"/><polyline class="cls-1" points="1057.3 8.48 1057.3 46.72 1017.32 46.72 1017.32 164.92 971.69 164.92 971.69 46.72 931.71 46.72 931.71 8.48 1057.3 8.48"/><path class="cls-2" d="M131.46,71.7a5.83,5.83,0,0,1,3-2.88c5.88-1.77,9.44-5.7,12.55-10.88C158.17,39.35,169.76,21,181.2,2.57c.43-.68.89-1.35,1.49-2.26L206.08,37l11.45-4.37,66,134L84,166.78s32-64.21,47.46-95.08" transform="translate(0 0)"/><path class="cls-3" d="M409.59,166.6V7.52h55.68c57,0,91.69,34,91.69,79.54,0,45.74-34.69,79.54-91.69,79.54H409.59M455.77,46.41v81.31h8.83c30.71,0,45.74-19.45,45.74-40.66,0-21-15-40.65-45.74-40.65Z" transform="translate(0 0)"/><polyline class="cls-3" points="591.18 168.87 591.18 108.78 533.07 9.79 585.65 9.79 614.38 64.81 643.1 9.79 695.68 9.79 637.57 108.78 637.57 168.87 591.18 168.87"/><path class="cls-4" d="M183.56,96c-16.45,23.28-32.69,46.29-49.13,69.56h98.26L183.56,96" transform="translate(0 0)"/><path class="cls-1" d="M90.8,165.54c.72.06,1,.11,1.31.11,12.78,0,25.56,0,38.35-.06a3.8,3.8,0,0,0,2.57-1.52c9.85-13.83,19.61-27.73,29.45-41.56a2.75,2.75,0,0,0,.21-3.51c-6.7-11.48-13.32-23-20-34.49-.8-1.39-1.64-2.75-2.62-4.39C123.61,108.7,107.28,137,90.8,165.54" transform="translate(0 0)"/><path class="cls-5" d="M276.39,165.66c-16.55-28.67-32.9-57-49.38-85.53-.53.85-.9,1.4-1.22,2-7.09,12.27-14.14,24.56-21.29,36.79a2.9,2.9,0,0,0,.18,3.7Q219.4,143.26,234,164a3.48,3.48,0,0,0,3.26,1.67c12.27-.06,24.53,0,36.8,0h2.38" transform="translate(0 0)"/><path class="cls-3" d="M202.17,118.94c.48-.75.85-1.28,1.17-1.84,4.69-8.11,9.33-16.25,14.09-24.32a2.8,2.8,0,0,0,0-3.37Q206,70.42,194.8,51.35c-3.33-5.62-6.65-11.25-10.12-17.12-.58.91-1,1.56-1.43,2.24C173.06,53.67,163,71,152.57,88c-2.29,3.75-2.28,6.38,0,10,4.32,6.75,8.12,13.83,12.29,21,6.27-8.86,12.38-17.51,18.67-26.39l18.61,26.31" transform="translate(0 0)"/><path class="cls-6" d="M83.91,166a20.4,20.4,0,0,0,1.29-1.94q23.07-46.36,46.16-92.7a5.85,5.85,0,0,1,3-2.88c5.87-1.77,9.43-5.71,12.54-10.88C158.08,39,169.67,20.7,181.1,2.26c.43-.68.89-1.35,1.49-2.26L206,36.66l11.44-4.37,66,133.94c-3.06,1.1-4.05.76-5.55-1.85q-24.85-43-49.7-86.08c-.37-.62-.75-1.23-1.23-2l-7.5,12.87L184.63,30.37c-12,20.28-23.86,40.28-35.92,60.62l-8.56-14.76c-3.66,6.32-7.13,12.3-10.59,18.29l-40,69.4c-1.81,3.15-1.88,3.18-5.6,2.55V166" transform="translate(0 0)"/><path class="cls-3" d="M116.22,118.43c0,30.27-22.54,48.39-64.08,48.39-17.89,0-36.23-3.32-48.6-8.62V114c14.8,8.18,32.47,12.6,46.17,12.6,13.92,0,21.43-2.43,21.43-8.18,0-6.63-10.38-9.72-27.39-16.35C18.12,92.14,0,81.53,0,51,0,21.22,24.53,1.11,62.31,1.11c15.9,0,32.25,2.87,43.3,7.51V51c-9.72-6.4-24.52-10.16-39.33-10.16-13,0-21,3.76-21,10.16,0,5.75,9.73,9.73,25.85,16.35,25.63,10.61,45.08,21.44,45.08,51" transform="translate(0 0)"/><polyline class="cls-3" points="304.89 95.3 304.89 166.66 259.82 166.66 259.82 5.38 262.03 5.38 353.06 78.95 353.06 7.59 398.35 7.59 398.35 168.87 396.36 168.87 304.89 95.3"/><rect class="cls-3" x="2.81" y="164.78" width="1048.08" height="4.28"/></svg>